<?xml version="1.0"?>
<svg xmlns="http://www.w3.org/2000/svg" viewBox="0 0 32 32">
    <path style="text-indent:0;text-align:start;line-height:normal;text-transform:none;block-progression:tb;-inkscape-font-specification:Sans" d="M 5 5 L 5 6 L 5 26 L 5 27 L 6 27 L 26 27 L 27 27 L 27 26 L 27 6 L 27 5 L 26 5 L 6 5 L 5 5 z M 7 7 L 25 7 L 25 25 L 7 25 L 7 7 z M 11.6875 10.3125 L 10.28125 11.71875 L 14.5625 16 L 10.21875 20.34375 L 11.625 21.75 L 15.96875 17.40625 L 20.28125 21.71875 L 21.6875 20.3125 L 17.375 16 L 21.625 11.75 L 20.21875 10.34375 L 15.96875 14.59375 L 11.6875 10.3125 z" overflow="visible" font-family="Sans"/>
</svg>
