<?xml version="1.0"?>
<svg xmlns="http://www.w3.org/2000/svg" viewBox="0 0 50 50">
    <path style="line-height:normal;text-indent:0;text-align:start;text-decoration-line:none;text-decoration-style:solid;text-decoration-color:#000;text-transform:none;block-progression:tb;isolation:auto;mix-blend-mode:normal" d="M 3 8 C 2.735 8 2.4799687 8.1059688 2.2929688 8.2929688 C 2.1049688 8.4799688 2 8.735 2 9 L 2 26.267578 C 2.294 26.096578 2.636 26 3 26 L 4 26 L 4 10 L 46 10 L 46 44 L 30 44 L 30 45 C 30 45.364 29.903422 45.706 29.732422 46 L 47 46 C 47.265 46 47.520031 45.895031 47.707031 45.707031 C 47.895031 45.520031 48 45.265 48 45 L 48 9 C 48 8.735 47.895031 8.4809688 47.707031 8.2929688 C 47.520031 8.1049688 47.265 8 47 8 L 3 8 z M 36 13 A 1.0001 1.0001 0 1 0 36 15 L 39.585938 15 L 29.292969 25.292969 A 1.0001 1.0001 0 1 0 30.707031 26.707031 L 41 16.414062 L 41 20 A 1.0001 1.0001 0 1 0 43 20 L 43 13 L 36 13 z M 3 28 A 1.0001 1.0001 0 0 0 2 29 L 2 45 A 1.0001 1.0001 0 0 0 3 46 L 27 46 A 1.0001 1.0001 0 0 0 28 45 L 28 29 A 1.0001 1.0001 0 0 0 27 28 L 3 28 z M 4 30 L 26 30 L 26 44 L 4 44 L 4 30 z" font-weight="400" font-family="sans-serif" white-space="normal" overflow="visible"/>
</svg>
